<?xml version="1.0" encoding="utf-8"?>
<!-- Generator: Adobe Illustrator 13.0.0, SVG Export Plug-In . SVG Version: 6.00 Build 14948)  -->
<!DOCTYPE svg PUBLIC "-//W3C//DTD SVG 1.1//EN" "http://www.w3.org/Graphics/SVG/1.1/DTD/svg11.dtd">
<svg version="1.1" id="Livello_1" xmlns="http://www.w3.org/2000/svg" xmlns:xlink="http://www.w3.org/1999/xlink" x="0px" y="0px"
	 width="600px" height="120px" viewBox="0 0 600 120" enable-background="new 0 0 600 120" xml:space="preserve">
<path fill="#ED2024" d="M142.862,105c3.919,0,6.979-1.219,9.18-3.66c2.199-2.439,3.3-5.34,3.3-8.7c0-3.36-1.101-6.279-3.3-8.76
	c-2.201-2.479-5.261-3.72-9.18-3.72h-23.76l33.84-45.6c0.96-1.279,1.579-2.439,1.86-3.48c0.279-1.039,0.42-2.52,0.42-4.44
	c0-3.439-1.121-6.139-3.36-8.1c-2.241-1.959-5.04-2.94-8.4-2.94h-47.64c-3.92,0-6.96,1.221-9.12,3.66
	c-2.16,2.441-3.24,5.34-3.24,8.7c0,3.36,1.08,6.281,3.24,8.76c2.16,2.48,5.199,3.72,9.12,3.72h25.44l-32.88,42.24
	c-3.521,3.521-5.28,7.121-5.28,10.8c0,3.84,1.239,6.72,3.72,8.64c2.479,1.92,5.76,2.88,9.84,2.88H142.862z"/>
<path fill="#ED2024" d="M228.062,105c3.84,0,7.14-0.559,9.9-1.68c2.76-1.12,5.04-2.7,6.84-4.74c1.8-2.04,3.139-4.479,4.02-7.32
	c0.879-2.838,1.32-5.939,1.32-9.3c0-6-1.5-10.899-4.5-14.7c-3-3.799-7.26-6.139-12.78-7.02c5.52-0.799,9.78-3.079,12.78-6.84
	c3-3.759,4.5-8.64,4.5-14.64c0-3.36-0.44-6.459-1.32-9.3c-0.881-2.839-2.22-5.28-4.02-7.32c-1.8-2.04-4.122-3.64-6.96-4.8
	c-2.841-1.159-6.221-1.74-10.14-1.74h-36.6c-7.44,0-11.16,4.121-11.16,12.36c0,8.321,3.759,12.48,11.28,12.48h27.84
	c3.279,0,4.92,1.241,4.92,3.72c0,2.48-1.641,3.72-4.92,3.72h-27.48c-7.76,0-11.64,4.122-11.64,12.36
	c0,8.321,3.918,12.48,11.76,12.48h27.36c3.279,0,4.92,1.241,4.92,3.72c0,2.481-1.641,3.72-4.92,3.72h-27.24
	c-7.92,0-11.88,4.161-11.88,12.48c0,8.241,3.918,12.36,11.76,12.36H228.062z">
<animateTransform
        attributeType="XML"
        attributeName="transform"
        type="rotate"
        from="0,210,60" to="360,210,60"
        begin="0s" dur="5s"
        repeatCount="indefinite"/>
</path>

<path fill="#ED2024" d="M320.341,99.48c0.319,0.401,0.739,0.9,1.26,1.5c0.52,0.6,1.2,1.2,2.04,1.8c0.84,0.6,1.86,1.101,3.06,1.5
	c1.2,0.401,2.64,0.6,4.32,0.6c3.36,0,6.259-1.02,8.7-3.06c2.439-2.04,3.66-5.1,3.66-9.18V27.96c0-4.08-1.22-7.14-3.66-9.18
	c-2.441-2.04-5.34-3.06-8.7-3.06c-1.68,0-3.261,0.26-4.74,0.78c-1.481,0.521-2.78,1.301-3.9,2.34c-1.121,1.041-2.021,2.321-2.7,3.84
	c-0.681,1.521-1.02,3.281-1.02,5.28V55.2l-22.32-33.96c-1.041-1.999-2.381-3.42-4.02-4.26c-1.641-0.84-3.66-1.26-6.06-1.26
	c-3.36,0-6.24,1.061-8.64,3.18c-2.4,2.121-3.6,5.142-3.6,9.06v64.68c0,4.08,1.2,7.14,3.6,9.18c2.4,2.04,5.28,3.06,8.64,3.06
	c3.36,0,6.259-1.02,8.7-3.06c2.439-2.04,3.66-5.1,3.66-9.18V67.2l21.48,32.4L320.341,99.48z"/>
<path fill="#ED2024" d="M388.621,89.94c-0.642-1.479-1.542-2.799-2.7-3.96c-1.161-1.159-2.48-2.059-3.96-2.7
	c-1.481-0.64-3.06-0.96-4.74-0.96c-1.68,0-3.282,0.32-4.8,0.96c-1.521,0.641-2.841,1.541-3.96,2.7
	c-1.121,1.161-2.021,2.481-2.7,3.96c-0.681,1.481-1.02,3.06-1.02,4.74c0,1.68,0.339,3.261,1.02,4.74
	c0.679,1.481,1.579,2.781,2.7,3.9c1.119,1.121,2.439,1.999,3.96,2.64c1.519,0.64,3.12,0.96,4.8,0.96c1.68,0,3.258-0.32,4.74-0.96
	c1.479-0.641,2.799-1.519,3.96-2.64c1.159-1.12,2.059-2.419,2.7-3.9c0.639-1.479,0.96-3.06,0.96-4.74
	C389.581,93,389.26,91.421,388.621,89.94z"/>
<path fill="#ED2024" d="M410.939,92.64c0,4.08,1.219,7.14,3.66,9.18c2.439,2.04,5.34,3.06,8.7,3.06c3.36,0,6.24-1.02,8.64-3.06
	c2.4-2.04,3.6-5.1,3.6-9.18V27.96c0-3.918-1.2-6.939-3.6-9.06c-2.4-2.119-5.28-3.18-8.64-3.18c-3.36,0-6.261,1.02-8.7,3.06
	c-2.441,2.041-3.66,5.1-3.66,9.18V92.64z"/>
<path fill="#ED2024" d="M476.338,92.64c0,4.08,1.2,7.14,3.6,9.18c2.4,2.04,5.28,3.06,8.64,3.06s6.259-1.02,8.7-3.06
	c2.439-2.04,3.66-5.1,3.66-9.18v-52.2h8.4c3.919,0,6.979-1.239,9.18-3.72c2.199-2.479,3.3-5.4,3.3-8.76c0-3.36-1.101-6.259-3.3-8.7
	c-2.201-2.439-5.261-3.66-9.18-3.66h-41.64c-3.921,0-6.981,1.221-9.18,3.66c-2.201,2.441-3.3,5.34-3.3,8.7
	c0,3.36,1.099,6.281,3.3,8.76c2.199,2.48,5.259,3.72,9.18,3.72h8.64V92.64z"/>
</svg>
